<?xml version="1.0" standalone="no"?>
<!DOCTYPE svg PUBLIC "-//W3C//DTD SVG 1.1//EN" "http://www.w3.org/Graphics/SVG/1.1/DTD/svg11.dtd" >
<!--
2013-9-30: Created.
-->
<svg>
<metadata>
Created by iconfont
</metadata>
<defs>

<font id="iconfont" horiz-adv-x="1024" >
  <font-face
    font-family="iconfont"
    font-weight="500"
    font-stretch="normal"
    units-per-em="1024"
    ascent="896"
    descent="-128"
  />
    <missing-glyph />
    
    <glyph glyph-name="x" unicode="x" horiz-adv-x="1001"
d="M281 543q-27 -1 -53 -1h-83q-18 0 -36.5 -6t-32.5 -18.5t-23 -32t-9 -45.5v-76h912v41q0 16 -0.5 30t-0.5 18q0 13 -5 29t-17 29.5t-31.5 22.5t-49.5 9h-133v-97h-438v97zM955 310v-52q0 -23 0.5 -52t0.5 -58t-10.5 -47.5t-26 -30t-33 -16t-31.5 -4.5q-14 -1 -29.5 -0.5
t-29.5 0.5h-32l-45 128h-439l-44 -128h-29h-34q-20 0 -45 1q-25 0 -41 9.5t-25.5 23t-13.5 29.5t-4 30v167h911zM163 247q-12 0 -21 -8.5t-9 -21.5t9 -21.5t21 -8.5q13 0 22 8.5t9 21.5t-9 21.5t-22 8.5zM316 123q-8 -26 -14 -48q-5 -19 -10.5 -37t-7.5 -25t-3 -15t1 -14.5
t9.5 -10.5t21.5 -4h37h67h81h80h64h36q23 0 34 12t2 38q-5 13 -9.5 30.5t-9.5 34.5q-5 19 -11 39h-368zM336 498v228q0 11 2.5 23t10 21.5t20.5 15.5t34 6h188q31 0 51.5 -14.5t20.5 -52.5v-227h-327z" />
    

    
    <glyph glyph-name="user-fill" unicode="&#58881;" d="M736.436 562.504c0-129.443-104.934-234.375-234.375-234.375s-234.375 104.932-234.375 234.375c0 129.439 104.934 234.375 234.375 234.375s234.375-104.935 234.375-234.375zM695.51 317.074c-54.625-43.133-122.33-67.070-193.449-67.070-71.943 0-140.31 24.498-195.184 68.459-144.637-53.078-209.221-238.629-209.221-323.342h804.688c0 83.984-65.082 268.211-206.834 321.953z"  horiz-adv-x="1000" />

    
    <glyph glyph-name="edit" unicode="&#58924;" d="M861.429 639.353c2.413-5.362 4.346-11.615 5.809-18.764 1.492-7.147 2.233-14.593 2.233-22.337 0-7.743-1.488-15.482-4.469-23.225-2.988-7.745-7.755-15.192-14.291-22.337-7.149-7.151-13.55-13.402-19.212-18.762-5.659-5.361-10.572-10.127-14.743-14.297-4.762-4.764-9.232-8.936-13.402-12.507l-167.080 167.071c7.146 6.552 15.636 14.444 25.461 23.679 9.828 9.232 18.021 16.525 24.573 21.889 8.34 6.551 16.979 11.167 25.914 13.85 8.933 2.678 17.72 3.87 26.355 3.571 8.637-0.3 16.974-1.639 25.020-4.021 8.040-2.382 15.036-5.061 20.991-8.042 12.515-6.557 26.362-18.019 41.552-34.397 15.185-16.377 26.954-33.505 35.29-51.372v0zM165.405 203.349c3.573 3.573 11.914 12.063 25.016 25.464 13.106 13.403 29.488 29.93 49.141 49.587l329.701 329.682 167.078-167.968-192.098-192.092-71.478-72.37c-23.827-23.229-45.271-44.526-64.332-63.883-19.060-19.359-34.848-35.29-47.355-47.799-12.51-12.508-19.956-19.656-22.338-21.443-5.953-5.36-12.808-11.018-20.548-16.973-7.743-5.961-15.783-10.724-24.125-14.297-8.336-4.171-20.55-9.231-36.635-15.189-16.081-5.956-32.908-11.763-50.481-17.422-17.569-5.662-34.247-10.575-50.037-14.746-15.784-4.164-27.545-6.849-35.29-8.037-16.086-1.788-26.805 0.596-32.167 7.147-5.36 6.549-6.849 17.568-4.468 33.058 1.192 8.338 4.024 20.397 8.491 36.184 4.468 15.785 9.232 32.163 14.292 49.14 5.066 16.973 9.978 32.61 14.745 46.904 4.765 14.294 8.634 24.123 11.614 29.484 3.575 8.337 7.596 15.933 12.062 22.783 4.469 6.853 10.874 14.445 19.21 22.785v0zM463.329 34.84h79.902v-79.549h-79.902v79.549zM625.669 34.84h79.902v-79.549h-79.902v79.549zM788.656 34.84h79.902v-79.549h-79.902v79.549z"  horiz-adv-x="1024" />

    
    <glyph glyph-name="close-fill-bold" unicode="&#58889;" d="M527.521 852.455c-248.424 0-449.812-201.379-449.812-449.793s201.388-449.793 449.812-449.793 449.812 201.379 449.812 449.793-201.388 449.793-449.812 449.793zM703.014 290.569c22.393-22.393 22.392-58.698 0-81.090s-58.698-22.392-81.091 0l-94.125 94.121-94.125-94.121c-22.393-22.392-58.699-22.392-81.093 0-22.393 22.392-22.393 58.697 0 81.090l94.125 94.121-94.125 94.12c-22.393 22.393-22.393 58.698 0 81.090 22.394 22.392 58.7 22.392 81.093 0l94.125-94.121 94.125 94.121c22.392 22.392 58.698 22.392 81.091 0s22.393-58.697 0-81.090l-94.124-94.12 94.124-94.121z"  horiz-adv-x="1024" />

    
    <glyph glyph-name="tips-error-fill-bold" unicode="&#58925;" d="M527.521 847.441c-246.732 0-446.746-200.006-446.746-446.727s200.015-446.727 446.746-446.727 446.746 200.006 446.746 446.727-200.015 446.727-446.746 446.727zM527.521 105.185c-31.453 0-56.95 25.497-56.95 56.948s25.498 56.948 56.95 56.948 56.95-25.497 56.95-56.948-25.498-56.948-56.95-56.948zM584.472 346.812c0-31.451-25.498-56.948-56.95-56.948s-56.95 25.497-56.95 56.948l0 243.050c0 31.45 25.498 56.947 56.95 56.947s56.95-25.497 56.95-56.948l-0-243.049z"  horiz-adv-x="1024" />

    
    <glyph glyph-name="tips-right-fill-bold" unicode="&#58906;" d="M529.524 847.694c-248.375 0-449.722-201.339-449.722-449.703s201.347-449.703 449.722-449.703 449.722 201.339 449.722 449.703-201.347 449.703-449.722 449.703zM747.173 418.642l-221.389-221.38c-11.277-11.277-26.081-16.842-40.862-16.759-14.781-0.084-29.586 5.482-40.863 16.759l-116.778 116.774c-22.388 22.388-22.388 58.686 0 81.072 22.389 22.389 58.688 22.389 81.076 0l76.566-76.562 181.175 181.168c22.389 22.389 58.688 22.389 81.076 0 22.39-22.388 22.39-58.686 0.001-81.072z"  horiz-adv-x="1024" />

    
    <glyph glyph-name="search" unicode="&#58900;" d="M798.386532 461.159334c0-90.322122-32.875059-173.048241-87.325366-236.740866 0 0 195.358181-195.621353 232.072842-231.577263 30.171373-29.522384-4.434167-75.370595-43.419638-33.901111-23.467419 24.980951-228.233239 225.844701-228.233239 225.844701-63.803709-54.933123-146.802359-88.132246-237.587665-88.132246-201.30588 0-364.492043 163.235758-364.492043 364.506784 0 201.271026 163.186162 364.477109 364.492043 364.477109C635.200369 825.636442 798.386532 662.4303600000001 798.386532 461.159334zM433.893466 767.863644c-169.349788 0-306.69027-137.333832-306.69027-306.676681 0-169.398108 137.340482-306.732963 306.69027-306.732963 169.404026 0 306.744508 137.334855 306.744508 306.732963C740.637974 630.529813 603.297491 767.863644 433.893466 767.863644z"  horiz-adv-x="1024" />

    
    <glyph glyph-name="facility" unicode="&#58971;" d="M-90.549 986.549v0 0zM921.546 509.933q29.412 0 50.011-19.997t20.601-49.446v-488.403q0-28.245-20.601-48.844t-50.011-20.601h-813.214q-14.122 0-27.077 5.31t-22.37 14.725-14.725 22.37-5.31 27.077v488.403q0 29.412 19.997 49.446t49.446 19.997h69.444q25.909-37.66 66.507-96.522t122.995-166.53 112.978-130.037q23.537-15.29 35.889-15.892t33.554 15.892q29.412 24.705 105.333 122.995t137.117 184.191l60.028 85.901h69.444zM548.492 207.45299999999997q-3.539-4.708-7.081-8.247t-7.645-7.081-8.812-5.31-9.415-1.77q-16.494 0-32.953 21.202-12.955 17.662-50.614 64.134t-64.134 81.796-57.091 81.193-46.471 86.505-15.892 73.548q0 109.438 78.256 187.694t188.899 78.256q71.779 0 133.578-35.889t97.689-97.086 35.889-132.976q0-32.953-16.494-73.548t-47.074-86.505-56.489-81.193-63.569-81.796-50.614-62.966v0zM515.539 770.009q-71.779 0-121.79-50.011t-50.011-121.226 50.011-121.226 121.79-50.011q45.907 0 85.337 22.934t62.364 62.364 22.934 86.505q0 34.118-13.52 65.904t-36.492 54.719-54.719 36.492-65.904 13.52z"  horiz-adv-x="1024" />

    
    <glyph glyph-name="sys-manage" unicode="&#58908;" d="M928.335 273.169c1.151-7.231 0.891-15.878-0.943-26.094-1.783-10.166-4.821-20.59-9.011-31.067-4.192-10.481-9.328-19.963-15.3-28.345-5.972-8.386-12.571-14.41-19.803-18.023-7.231-3.617-13.519-5.396-18.864-5.396-5.448 0-11.42 1.151-18.023 3.561-6.024 1.783-13.515 3.406-22.529 4.925-9.009 1.519-18.18 1.835-27.453 0.943s-18.547-2.83-27.873-5.816c-9.324-2.986-17.289-8.123-23.892-15.297-14.354-15.037-22.792-32.119-25.147-51.293-2.359-19.175 0.312-37.514 8.067-54.911 5.972-11.996 5.137-24.048-2.671-36.044-3.616-4.821-9.377-9.797-17.131-14.83-7.755-5.133-16.401-9.797-25.623-13.987-9.325-4.194-19.072-7.547-29.288-9.902-10.217-2.41-19.227-3.565-27.034-3.565-5.396 0-10.477 2.099-15.297 6.288-4.821 4.194-8.019 8.698-9.849 13.519h-0.891c-6.603 18.6-17.868 34.633-33.793 48.148-15.929 13.519-34.372 20.278-55.382 20.278-20.433 0-38.873-6.759-55.378-20.278-16.505-13.515-28.085-29.236-34.684-47.204-2.986-7.231-7.492-12.472-13.519-15.773-5.972-3.298-12.572-4.976-19.803-4.976-8.382 0-17.868 1.467-28.345 4.505-10.533 3.042-21.010 6.759-31.542 11.265-10.478 4.509-19.963 9.745-28.397 15.773-8.383 5.972-14.67 11.996-18.86 18.023-3.042 4.189-4.665 9.114-4.98 14.826-0.312 5.66 1.939 13.674 6.759 23.84 6.603 13.831 9.17 29.548 7.651 47.256-1.52 17.712-9.17 34.004-22.949 49.095-8.434 9.010-18.6 14.826-30.599 17.552-11.996 2.67-23.42 3.718-34.213 3.142-12.571-0.576-25.515-2.986-38.666-7.231-8.434-2.355-16.817-1.727-25.199 1.835-6.603 2.41-12.787 7.91-18.444 16.608-5.712 8.698-10.792 18.34-15.297 28.816-4.509 10.481-7.966 21.326-10.376 32.43-2.411 11.108-3.038 20.227-1.78 27.405 1.887 13.203 7.859 21.586 18.076 25.251 18.025 7.231 34.213 19.019 48.619 35.576 14.41 16.505 21.638 34.948 21.638 55.379 0 21.008-7.175 39.296-21.638 54.91-14.406 15.561-30.595 26.93-48.619 34.161-5.396 1.779-9.905 6.128-13.519 13.043-3.561 6.916-5.396 13.991-5.396 21.114 0 7.807 1.203 16.505 3.613 26.146s5.557 18.915 9.486 27.925c3.877 9.013 8.382 17.237 13.463 24.783 5.085 7.439 10.637 12.991 16.66 16.608 4.769 2.986 9.434 4.189 13.938 3.56 4.453-0.575 9.43-1.783 14.878-3.56 17.972-7.18 36.732-9.434 56.275-6.759 19.487 2.726 36.779 11.212 51.761 25.67 7.231 7.181 12.471 16.033 15.721 26.566 3.298 10.478 5.396 20.85 6.284 31.068 0.891 10.164 0.891 19.491 0 27.873-0.888 8.438-1.623 14.41-2.251 18.023-1.206 3.618-2.254 7.807-3.146 12.628-0.887 4.769-0.415 8.958 1.363 12.575 3.566 8.383 10.009 15.718 19.335 22.057 9.325 6.287 19.33 11.529 30.179 15.717 10.845 4.194 21.322 7.387 31.538 9.486 10.166 2.095 18.283 3.142 24.312 3.142 7.807 0 13.934-2.566 18.443-7.65 4.506-5.133 7.647-10.373 9.43-15.77 6.6-16.189 17.448-30.49 32.43-42.751 15.037-12.259 32.746-18.443 53.129-18.443 21.008 0 39.608 5.868 55.797 17.552 16.241 11.684 27.613 26.562 34.161 44.585 2.462 4.769 6.184 9.694 11.316 14.827 5.029 5.084 10.322 7.65 15.667 7.65 8.381 0 17.604-1.203 27.453-3.561 9.849-2.411 19.651-5.712 29.288-9.906 9.589-4.189 18.494-9.585 26.566-16.189 8.067-6.6 14.51-13.831 19.331-21.638 3.039-4.769 3.929-10.005 2.726-15.717-1.155-5.712-2.41-9.797-3.617-12.156-7.754-17.396-10.161-35.732-7.175-54.907 2.986-19.231 11.736-36.048 26.090-50.402 14.41-14.41 32.119-22.374 53.128-23.892 21.010-1.519 40.5 1.939 58.521 10.373 4.768 2.986 10.636 4.189 17.551 3.561 6.921-0.575 12.731-3.301 17.552-8.067 9.014-8.438 16.924-21.169 23.84-38.249 6.916-17.133 11.579-34.369 13.991-51.761 1.151-10.217-0.472-18.184-4.976-23.892-4.51-5.712-9.17-9.434-13.937-11.265-18.601-6.603-34.529-18.132-47.733-34.633-13.203-16.505-19.802-35.26-19.802-56.27 0-20.434 5.498-38.25 16.607-53.548 11.108-15.297 25.671-26.25 43.694-32.85 4.194-2.41 7.755-4.821 10.793-7.231 6.657-5.45 11.162-12.313 13.52-20.748v0zM509.754 186.16c27.81 0 54.107 5.289 78.84 15.766 24.732 10.478 46.226 25.058 64.477 43.636 18.252 18.576 32.616 40.013 43.149 64.423 10.47 24.46 15.766 50.596 15.766 78.46 0 27.813-5.296 54.004-15.766 78.412-10.533 24.463-24.897 45.793-43.149 64.044-18.252 18.251-39.745 32.617-64.477 43.094-24.732 10.53-51.029 15.766-78.84 15.766-27.867 0-54.004-5.236-78.411-15.766-24.464-10.478-45.793-24.897-63.99-43.149-18.305-18.251-32.671-39.58-43.202-64.045-10.478-24.41-15.767-50.544-15.767-78.358 0-27.864 5.289-54 15.767-78.46 10.531-24.41 24.897-45.9 43.148-64.423 18.252-18.577 39.526-33.105 63.991-43.636 24.46-10.529 50.596-15.765 78.464-15.765v0zM527.163 189.098z"  horiz-adv-x="1024" />

    
    <glyph glyph-name="info" unicode="&#58985;" d="M920.62305 558.652785c-23.517623 54.243415-55.327096 101.372805-95.40079 141.494595-40.073694 40.074717-87.132476 71.880097-141.009548 95.377254C630.21796 819.063747 572.379671 830.716134 510.81757 830.716134c-61.561078 0-119.520117-11.652388-173.759439-35.192523-54.359049-23.496134-101.539604-55.301514-141.612275-95.377254-40.074717-40.121789-71.880097-87.252203-95.27697-141.494595-23.641443-54.380538-35.289738-112.338554-35.289738-173.878143 0-61.58359 11.648294-119.397321 35.289738-173.398212 23.396873-53.895491 55.202253-100.92869 95.27697-141.007501 40.073694-40.074717 87.25425-71.880097 141.612275-95.274924 54.239322-23.543206 112.198362-35.386952 173.759439-35.386952 61.562101 0 119.401414 11.843746 173.396165 35.386952 53.876048 23.394826 100.935853 55.200206 141.009548 95.274924 40.072671 40.078811 71.882144 87.11201 95.40079 141.007501 23.517623 54.000891 35.264155 111.814622 35.264155 173.398212C955.887204 446.314231 944.141696 504.272247 920.62305 558.652785L920.62305 558.652785 920.62305 558.652785zM568.414359 335.80432499999995l0-174.844144c0-4.062526-2.028193-8.1711-6.236028-11.265578-4.081968-3.140527-9.594519-4.687766-15.008832-4.687766l-73.791633 0c-5.414313 0-10.92584 1.547239-15.008832 4.687766-4.206812 3.093455-6.236028 7.203052-6.236028 11.265578L452.133006 337.014896l0.481977 112.194268c0 4.065596 2.031263 8.026814 6.236028 11.171434 4.086062 3.093455 9.474792 4.683672 14.889105 4.683672l73.42836 0.198521c5.51255 0.144286 10.926864-1.402953 15.129582-4.546549 4.206812-3.093455 6.238075-7.203052 6.238075-11.405771L568.414359 335.80432499999995 568.414359 335.80432499999995 568.414359 335.80432499999995zM568.537156 551.211303c0-6.137791-2.030239-12.136412-6.238075-16.821107-4.081968-4.640694-9.617032-6.960529-15.009855-6.960529l-73.912383 0c-5.414313 0-10.803044 2.319835-15.008832 6.960529-4.206812 4.590552-6.236028 10.683317-6.236028 16.821107l0 39.73498c0 6.093788 2.029216 12.230556 6.236028 16.774035 4.204765 4.687766 9.593496 6.960529 15.008832 6.960529l73.912383 0c5.392824 0 10.927887-2.272763 15.009855-6.960529 4.206812-4.54348 6.238075-10.68127 6.238075-16.774035L568.537156 551.211303 568.537156 551.211303 568.537156 551.211303z"  horiz-adv-x="1024" />

    
    <glyph glyph-name="close-circle" unicode="&#58917;" d="M872.803 140.006h0.061v0.369zM927.847 384.002c0 229.316-186.567 415.84-415.839 415.84-229.329 0-415.853-186.524-415.853-415.84 0-229.3 186.524-415.841 415.853-415.841 229.271 0 415.839 186.541 415.839 415.841M512.008 27.828c-196.376 0-356.173 159.827-356.173 356.174 0 196.375 159.797 356.158 356.173 356.158 196.345 0 356.144-159.783 356.144-356.158 0-196.347-159.799-356.174-356.144-356.174M682.379 253.772l-128.581 128.963 128.464 127.035c11.662 11.514 11.75 30.333 0.234 41.995-11.514 11.677-30.363 11.766-42.026 0.222l-128.58-127.184-126.666 127.065c-11.602 11.603-30.393 11.662-42.025 0.059-11.603-11.619-11.603-30.408-0.059-42.012l126.519-126.888-127.519-126.134c-11.663-11.544-11.78-30.305-0.235-41.97 5.831-5.89 13.43-8.833 21.086-8.833 7.54 0 15.137 2.885 20.91 8.569l127.695 126.312 128.699-129.169c5.802-5.8 13.429-8.718 21.057-8.718 7.599 0 15.165 2.917 20.969 8.659 11.604 11.573 11.632 30.365 0.060 42.026z"  horiz-adv-x="1024" />

    
    <glyph glyph-name="sort" unicode="&#58947;" d="M293.547 470.013h436.907l-218.453 262.147-218.453-262.147zM730.453 295.253h-436.907l218.453-262.147 218.453 262.147zM730.453 295.253z"  horiz-adv-x="1024" />

    
    <glyph glyph-name="club" unicode="&#58940;" d="M510.952646 827.849854c244.411569 0 442.545138-198.133569 442.545138-442.544115 0-244.410546-198.133569-442.544115-442.545138-442.544115-244.410546 0-442.545138 198.133569-442.545138 442.544115C68.407508 629.716284 266.543124 827.849854 510.952646 827.849854L510.952646 827.849854zM824.403614 491.018386c-0.041956 0.341784-0.106424 0.662079-0.166799 0.917906-0.278339 1.322112-0.642636 2.604314-1.174756 3.841491l-53.454446 133.059482c-9.267061 27.582195-35.862789 44.508703-66.965158 44.574195l-375.184985 0c-31.531134 0-56.015781-16.759709-64.875566-43.273573L205.115076 494.370737c-0.277316-0.791016-0.554632-1.985214-0.812505-3.182482-4.183276-12.8077-6.275937-25.979698-6.275937-39.174208 0.044002-46.429449 25.512047-88.803535 66.454528-110.641913 0 0 0-0.020466 0.020466-0.020466 0.021489 0 0.021489 0 0.021489-0.022513l0 0c0 0 0.021489 0 0.021489-0.041956 16.865109-8.987698 36.675294-13.535271 59.004859-13.535271 37.424354 0.106424 72.068386 16.542768 95.700619 44.680619 23.503297-27.901467 57.893548-44.23241 95.250364-44.466748 37.063127 0.297782 71.347978 16.670681 94.762247 44.573171 23.611767-28.137851 58.322313-44.508703 95.937003-44.508703 22.733771 0.106424 42.970674 4.885264 59.985186 14.214746 40.326451 22.029736 65.344241 64.280002 65.324798 110.23873C830.555731 465.69872 828.376089 478.954629 824.403614 491.018386L824.403614 491.018386 824.403614 491.018386zM743.34753 382.31563800000004L743.34753 382.31563800000004c25.660426 14.026458 41.608653 40.902572 41.564651 70.083172 0 8.667404-1.452071 17.399275-4.39817 26.003234-0.234337 0.74599-0.469698 1.664919-0.682545 2.626827l-52.984748 131.968637c-4.41659 13.022595-16.885576 14.304797-24.12035 14.730493L327.393004 627.7280000000001c-17.590634 0-21.110807-10.395768-22.26612-13.833053l-56.588833-133.763516c-0.170892-0.705058-0.342808-1.385557-0.556679-2.006703-2.924609-8.558933-4.375657-17.375739-4.375657-26.109658 0.021489-29.54285 16.244986-56.568367 42.332131-70.444399l0.021489 0 0.041956 0c10.160407-5.423523 22.777773-8.178263 37.507242-8.178263 27.644617 0.064468 52.985772 14.240329 67.714218 37.871539 1.153266 2.560312 2.969635 6.361895 6.40385 10.117428 9.349949 11.144828 33.345456 11.805884 44.062542-0.980327 2.664689-2.989077 4.377704-6.53381 5.40101-8.626471 14.686491-23.800056 39.85573-37.998429 67.412342-38.147832 27.197432 0.213871 52.303226 14.4542 66.906829 38.061874 1.193175 2.49789 2.87856 5.937223 5.976108 9.41544 4.631484 5.699816 12.851703 9.414417 21.943778 9.414417 11.249205 0 18.081821-4.994758 21.858844-9.221012 3.266393-3.608178 5.039783-7.345292 6.085602-9.608845 14.793938-23.927969 40.09109-38.018895 67.861574-38.018895C720.123596 373.755682 733.016231 376.65982499999996 743.34753 382.31563800000004L743.34753 382.31563800000004zM760.449024 309.116499c-12.618389 0-22.801309-10.203386-22.801309-22.801309l0.044002-124.412544c0-7.061836-5.762237-12.82919-12.808724-12.849656l-429.083545-0.279363c-7.065929 0-12.809747 5.701862-12.809747 12.726859l-0.171915 122.29737c-0.021489 12.577456-10.223852 22.735817-22.799262 22.735817l-0.041956 0c-12.573363-0.021489-22.775726-10.223852-22.754237-22.842241l0.149403-122.212436c0-32.149211 26.214035-58.300824 58.428737-58.300824l429.149037 0.275269c32.16763 0.064468 58.341756 26.282596 58.341756 58.471716l-0.041956 124.392078C783.248286 298.93562599999996 773.040806 309.116499 760.449024 309.116499L760.449024 309.116499 760.449024 309.116499zM692.690804 468.752266L692.690804 468.752266c12.614296 0 22.799262 10.224876 22.799262 22.799262 0 12.573363-10.184967 22.800285-22.799262 22.800285L327.819722 514.351813c-12.57234 0-22.800285-10.226922-22.800285-22.800285 0-12.574387 10.206456-22.799262 22.800285-22.799262L692.690804 468.752266z"  horiz-adv-x="1024" />

    
    <glyph glyph-name="sort-down" unicode="&#58946;" d="M714.5 280.641l-180.352-202.5c-12.128-13.711-33.223-13.711-44.825 0l-180.352 202.5c-17.403 19.512-3.692 50.625 22.676 50.625h360.703c25.84 0 40.078-31.113 22.148-50.625z"  horiz-adv-x="1024" />

    
    <glyph glyph-name="sort-up" unicode="&#58948;" d="M702.339 481.394l-169.080 189.844c-11.371 12.854-31.147 12.854-42.023 0l-169.080-189.844c-16.809-18.293-3.461-47.956 20.764-47.956h338.159c24.719 0 37.573 29.663 21.259 47.956z"  horiz-adv-x="1024" />

    
    <glyph glyph-name="community" unicode="&#58945;" d="M601.124 212.62900000000002h-199.116c-18.335 0-33.172-12.296-33.172-27.487s14.837-27.513 33.172-27.513h199.116c18.339 0 33.207 12.322 33.207 27.513s-14.868 27.487-33.207 27.487v0 0zM601.124 362.64599999999996h-199.116c-18.335 0-33.172-12.328-33.172-27.491 0-15.185 14.837-27.509 33.172-27.509h199.116c18.339 0 33.207 12.324 33.207 27.509 0 15.164-14.868 27.491-33.207 27.491v0 0zM601.124 662.66h-199.116c-18.335 0-33.172-12.316-33.172-27.481 0-15.195 14.837-27.519 33.172-27.519h199.116c18.339 0 33.207 12.325 33.207 27.519 0 15.165-14.868 27.481-33.207 27.481v0 0zM601.124 512.653h-199.116c-18.335 0-33.172-12.321-33.172-27.489 0-15.195 14.837-27.511 33.172-27.511h199.116c18.339 0 33.207 12.316 33.207 27.511 0 15.169-14.868 27.489-33.207 27.489v0 0zM236.07-49.46100000000001v772.135c0 16.541 14.868 29.993 33.172 29.993h464.649c18.335 0 33.172-13.451 33.172-29.993v-754.777h-530.993v-17.359zM1098.949-31.363000000000056v454.019c0 49.637-44.649 89.997-99.565 89.997h-66.389c-18.33 0-33.161-13.443-33.161-29.992 0-16.578 14.831-26.243 33.161-26.243h66.389c18.335 0 40.282-17.183 40.282-33.762v-454.019h-212.677v754.038c0 49.605-36.474 84.897-91.381 84.897h-464.649c-54.88 0-92.945-35.291-92.945-84.897v-754.038h-41.512c-18.335 0-33.172-9.458-33.172-26.009 0-16.569 14.837-30.017 33.172-30.017h995.617c18.335 0 33.212 13.448 33.212 30.016 0 16.551-14.878 26.009-33.212 26.009h-33.172z"  horiz-adv-x="1252" />

    
    <glyph glyph-name="down" unicode="&#58895;" d="M958.577476 584.819748c0-15.286148-5.878894-29.522384-16.564257-40.166815L551.623951 154.956444c-1.39272-1.425466-2.577708-2.537799-3.846608-3.449565l-2.905166-2.304486c-11.416004-11.362792-24.848944-16.945951-39.068807-16.945951-14.475689 0-28.010961 5.708002-38.110993 16.056698L79.475588 540.689668c-10.467399 10.613732-16.236799 24.786523-16.236799 39.893592 0 14.772448 5.599532 28.726252 15.753799 39.286772 10.18599 10.497075 24.390503 16.539698 38.95215 16.539698 14.382569 0 28.009937-5.723352 38.366819-16.142655l350.169241-353.968777 359.428116 358.485651c10.30981 10.248412 23.781636 15.909341 37.994336 15.909341 14.889105 0 28.859281-6.05081 39.333844-16.999163C953.126324 613.274824 958.577476 599.443817 958.577476 584.819748z"  horiz-adv-x="1024" />

    
    <glyph glyph-name="up" unicode="&#58896;" d="M63.238788 188.129984c0 15.286148 5.879917 29.522384 16.564257 40.166815L470.192314 617.993289c1.393743 1.425466 2.577708 2.538823 3.846608 3.449565l2.904143 2.304486c11.416004 11.361769 24.848944 16.944927 39.068807 16.944927 14.475689 0 28.010961-5.708002 38.110993-16.056698l388.216789-392.376529c10.467399-10.613732 16.236799-24.786523 16.236799-39.893592 0-14.772448-5.599532-28.726252-15.753799-39.286772-10.18599-10.497075-24.390503-16.539698-38.95215-16.539698-14.382569 0-28.009937 5.723352-38.366819 16.142655L515.335467 506.651434 155.906328 148.165784c-10.30981-10.248412-23.781636-15.909341-37.993313-15.909341-14.889105 0-28.859281 6.05081-39.333844 16.999163C68.68994 159.674908 63.238788 173.505915 63.238788 188.129984z"  horiz-adv-x="1024" />

    
    <glyph glyph-name="reload" unicode="&#58956;" d="M693.248 103.936c-54.784-40.448-118.784-60.416-183.808-59.392-8.704 0-17.408 1.024-25.6 1.536-3.584 0.512-6.656 1.024-10.24 1.536-6.656 1.024-13.312 1.536-19.968 3.072-4.096 0.512-8.192 2.048-11.776 3.072-6.656 1.536-12.8 3.072-18.944 5.12-3.072 1.024-5.632 2.048-8.704 3.584-7.168 2.56-14.336 5.12-21.504 8.192-1.536 0.512-3.072 1.536-4.608 2.048-8.192 4.096-16.384 7.68-24.064 12.288-0.512 0-0.512 0.512-1.024 0.512-26.112 15.36-50.176 33.792-71.68 56.32-0.512 0.512-0.512 1.024-1.024 1.024-6.656 6.656-12.8 13.824-18.944 21.504-1.024 1.536-2.56 3.072-3.584 5.12-43.008 56.32-68.608 128-68.608 205.824l82.432 0-132.096 208.384-132.096-208.896h82.432c0-91.648 27.136-176.128 73.216-246.272 0.512-1.024 1.024-2.048 1.536-3.072 4.608-7.168 10.24-13.824 15.36-20.48 2.048-2.56 3.584-5.12 5.632-7.68 7.68-9.728 15.36-18.432 23.552-27.648 1.024-1.024 1.536-1.536 2.048-2.56 27.648-29.184 58.88-53.76 92.672-73.216 1.024-0.512 1.536-1.024 2.56-1.536 9.728-5.632 19.968-10.752 30.208-15.36 2.56-1.024 5.12-2.56 7.68-3.584 8.704-4.096 17.92-7.168 26.624-10.24 4.096-1.536 8.704-3.072 12.8-4.608 7.68-2.56 15.872-4.608 24.064-6.656 5.632-1.536 10.752-3.072 16.384-4.096 2.048-0.512 4.608-1.536 6.656-1.536 7.68-1.536 15.36-2.048 23.040-3.072 3.072-0.512 5.632-1.024 8.192-1.536 13.824-1.536 27.648-2.048 41.472-2.048 83.968 0 165.888 27.136 236.032 78.848 22.528 16.384 27.648 49.152 12.288 72.704-15.36 24.064-46.592 29.696-68.608 12.8v0zM925.696 374.784c0 91.136-26.624 176.128-72.704 245.76-0.512 1.024-1.024 2.56-1.536 3.584-6.144 8.704-11.776 16.384-18.432 24.576-0.512 1.024-1.536 2.048-2.048 3.072-41.984 53.248-94.72 94.72-154.112 121.856-1.536 0.512-3.072 1.536-5.12 2.048-9.728 4.096-19.456 7.68-29.184 11.264-3.584 1.024-7.168 2.56-10.24 3.584-8.704 2.56-17.408 5.12-26.112 7.168-4.608 1.024-9.728 2.56-14.848 3.584-2.56 0.512-4.608 1.024-7.168 1.536-6.656 1.024-12.8 1.536-19.456 2.56-4.608 0.512-8.704 1.024-13.312 1.536-10.752 1.024-22.016 1.536-32.768 1.536-2.048 0-4.096 0.512-6.144 0.512-0.512 0-0.512 0-1.024 0-83.968 0-165.888-26.624-236.032-78.336-22.528-16.384-27.648-49.152-12.288-72.704 15.36-23.552 46.592-29.184 69.12-12.8 54.272 39.936 117.248 60.416 182.272 59.392 9.216 0 18.432-0.512 27.648-1.536 3.072 0 5.632-0.512 8.192-1.024 7.68-1.024 14.848-2.048 22.016-3.584 3.072-0.512 6.656-1.536 9.216-2.048 7.168-1.536 14.336-3.584 21.504-5.632 2.56-0.512 4.608-1.536 6.656-2.56 8.192-2.56 15.872-5.632 23.552-9.216 1.024 0 1.536-1.024 2.56-1.024 46.080-20.992 86.528-53.248 118.272-93.184 0 0 0-0.512 0.512-0.512 44.544-57.344 71.168-130.048 71.168-209.408h-82.944l132.608-208.896 132.096 208.896h-81.92z"  horiz-adv-x="1024" />

    
    <glyph glyph-name="payment" unicode="&#58936;" d="M861.813665 787.875776l-101.763975 0L760.049689 864.198758c0 19.080745-12.720497 31.801242-31.801242 31.801242-19.080745 0-31.801242-12.720497-31.801242-31.801242l0-76.322981L321.192547 787.875776 321.192547 864.198758C321.192547 883.279503 308.47205 896 289.391304 896 270.310559 896 257.590062 883.279503 257.590062 864.198758l0-76.322981L162.186335 787.875776c-50.881988 0-95.403727-44.521739-95.403727-95.403727l0-725.068323c0-50.881988 44.521739-95.403727 95.403727-95.403727l686.906832 0c57.242236 0 95.403727 44.521739 101.763975 95.403727L950.857143 692.47205C950.857143 743.3540370000001 912.695652 787.875776 861.813665 787.875776zM321.192547 717.913043C321.192547 705.192547 302.111801 686.111801 289.391304 686.111801S257.590062 705.192547 257.590062 717.913043L257.590062 787.875776 321.192547 787.875776 321.192547 717.913043zM664.645963 259.975155c12.720497 0 25.440994-12.720497 25.440994-25.440994 0-12.720497-12.720497-25.440994-25.440994-25.440994L537.440994 209.093168l0-120.84472c0-12.720497-12.720497-25.440994-25.440994-25.440994s-25.440994 12.720497-25.440994 25.440994l0 120.84472L359.354037 209.093168c-12.720497 0-25.440994 12.720497-25.440994 25.440994S346.63354 259.975155 359.354037 259.975155l120.84472 0L480.198758 304.496894 359.354037 304.496894c-12.720497 0-25.440994 12.720497-25.440994 25.440994 0 12.720497 12.720497 25.440994 25.440994 25.440994l120.84472 0-127.204969 127.204969C346.63354 495.304348 340.273292 501.664596 340.273292 508.024845c0 6.360248 0 12.720497 6.360248 19.080745 6.360248 6.360248 12.720497 6.360248 19.080745 6.360248 6.360248 0 12.720497 0 19.080745-6.360248L512 406.26087l120.84472 120.84472c12.720497 12.720497 25.440994 12.720497 38.161491 0 6.360248-6.360248 6.360248-12.720497 6.360248-19.080745 0-6.360248 0-12.720497-6.360248-19.080745l-127.204969-127.204969 120.84472 0c12.720497 0 25.440994-12.720497 25.440994-25.440994 0-12.720497-12.720497-25.440994-25.440994-25.440994L537.440994 310.85714299999995 537.440994 259.975155 664.645963 259.975155zM760.049689 717.913043c0-19.080745-12.720497-31.801242-31.801242-31.801242S696.447205 705.192547 696.447205 717.913043L696.447205 787.875776l57.242236 0L753.689441 717.913043z"  horiz-adv-x="1024" />

    
    <glyph glyph-name="clock" unicode="&#58920;" d="M678.777 151.63800000000003c6.254-5.612 14.516-9.028 23.579-9.028 19.51 0 35.327 15.818 35.327 35.327 0 11.456-5.459 21.637-13.914 28.09l0.044 0.054-107.33 87.102-67.94 55.564-0.501-0.021-0.027 0.021V615.12h-0.041c-0.848 18.756-16.317 33.707-35.284 33.707-18.966 0-34.439-14.95-35.284-33.707h-0.041v-284.991l0.138-0.266a40.994 40.994 0 0 1 2.843-10.986 41.207 41.207 0 0 1 8.861-13.278l4.784-3.882 0.001-0.001 2.211-1.825c-0.14 0.084-0.286 0.164-0.42 0.253l182.996-148.505zM518.766 848.406c-263.23 0-476.615-213.388-476.615-476.614 0-263.23 213.388-476.615 476.615-476.615 82.58 0 160.24 21.024 227.959 57.979a38.791 38.791 0 0 1 6.681 3.719c7.181 4.976 12.647 12.326 15.312 20.94a40.46 40.46 0 0 1 1.803 11.965c0 21.974-17.499 39.787-39.086 39.787a38.39 38.39 0 0 1-19.641-5.393 38.66 38.66 0 0 1-3.327-2.208c-56.542-29.786-121.113-46.693-189.698-46.693-222.646 0-403.136 177.95-403.136 397.462s180.49 397.462 403.135 397.462c222.645 0 403.137-177.949 403.137-397.462 0-65.805-16.234-127.867-44.948-182.529a38.488 38.488 0 0 1-3.609-6.031 38.895 38.895 0 0 1-3.841-16.916c0-21.212 16.841-38.41 37.613-38.41 8.967 0 17.197 3.209 23.658 8.556a38.375 38.375 0 0 1 8.836 10.516c0.422 0.79 0.839 1.586 1.259 2.38 34.799 66.178 54.509 141.527 54.509 221.489 0 263.231-213.387 476.617-476.613 476.617z"  horiz-adv-x="1024" />

    
    <glyph glyph-name="reserve" unicode="&#59325;" d="M458.170001 73.035666H161.009044c-21.304212 0-38.610366 17.581424-38.610366 39.220256v356.550579h723.546043V655.739984c0 52.829206-42.265616 95.768157-94.266967 95.768157h-72.704882V808.042739h-55.6566v-56.535621h-333.945745V808.042739h-55.657624v-56.535621h-72.704882c-52.002374 0-94.26799-42.939975-94.267991-95.768157v-543.483039c0-52.824089 42.265616-95.759971 94.267991-95.75997H458.168977c15.393595 0 27.826765 12.628622 27.826766 28.266787 0.001023 15.639189-12.432147 28.272927-27.825742 28.272927zM205.886137 384h194.798615v-56.542784H205.886137v56.542784z m0-169.613002h194.798615v-56.542784H205.886137v56.542784z m556.574195 84.806501h-55.657624v-141.349285H845.943698v56.542784h-83.483366v84.806501z m129.579217 46.820352c-42.095747 42.756803-97.92324 66.254983-157.404959 66.254983-59.486836 0-115.402333-23.496134-157.410076-66.254983-42.091654-42.753733-65.224514-99.474572-65.224514-159.898757s23.13286-117.230981 65.224514-159.90285c42.091654-42.753733 97.92324-66.254983 157.410076-66.254983 59.482743 0 115.39824 23.50125 157.404959 66.254983 42.087561 42.761919 65.219397 99.479689 65.219397 159.90285 0 60.424184-23.13286 117.229958-65.219397 159.898757zM734.633566 16.496975c-92.100628 0-166.975942 76.06235-166.975942 169.618119s74.875315 169.614026 166.975942 169.614026c92.092441 0 166.967756-76.058257 166.967756-169.614026s-74.875315-169.618119-166.967756-169.618119z"  horiz-adv-x="1024" />

    
    <glyph glyph-name="jiajian-1" unicode="&#58888;" d="M321.148 404.611h381.702c11.384 0 20.611-9.229 20.611-20.611s-9.229-20.611-20.611-20.611h-381.702c0 0 0 0 0 0-11.383 0-20.611 9.229-20.611 20.611 0 11.384 9.229 20.611 20.611 20.611 0 0 0 0 0 0zM491.389 193.148v381.702c0 11.384 9.229 20.611 20.611 20.611s20.611-9.229 20.611-20.611v-381.702c0 0 0 0 0 0 0-11.383-9.229-20.611-20.611-20.611-11.384 0-20.611 9.229-20.611 20.611 0 0 0 0 0 0z"  horiz-adv-x="1024" />

    
    <glyph glyph-name="jiajian-" unicode="&#58890;" d="M333.076 407.231h357.846c10.672 0 19.323-8.651 19.323-19.323s-8.652-19.323-19.323-19.323h-357.846c0 0 0 0 0 0-10.672 0-19.323 8.652-19.323 19.323 0 10.672 8.652 19.323 19.323 19.323 0 0 0 0 0 0z"  horiz-adv-x="1024" />

    


  </font>
</defs>
</svg>
